<svg width="252" height="29" viewBox="0 0 252 29" fill="none" xmlns="http://www.w3.org/2000/svg">
<path d="M6.2238 0H0.00012207V28.4735H6.2238V0Z" fill="#666666"/>
<path d="M10.3292 7.85334V28.4736H15.9633V17.6809C15.9633 15.575 16.3127 14.0614 16.9897 13.162C17.6885 12.2406 18.7803 11.78 20.3308 11.78C21.6847 11.78 22.6237 12.1968 23.1478 13.0303C23.6719 13.8639 23.934 15.1362 23.934 16.8473V28.4955H29.568V15.7943C29.568 14.522 29.4589 13.3594 29.2405 12.3064C29.0221 11.2535 28.629 10.3541 28.0613 9.6302C27.5153 8.90629 26.751 8.33595 25.7683 7.91915C24.8075 7.50236 23.5627 7.30493 22.0559 7.30493C20.8549 7.30493 19.6975 7.56817 18.562 8.11658C17.4264 8.66499 16.4874 9.52051 15.7886 10.727H15.6794V7.85334H10.3292Z" fill="#666666"/>
<path d="M47.7368 25.8412V28.4735H53.087V0H47.4529V10.3759H47.3655C46.7323 9.36687 45.8588 8.59909 44.7669 8.07262C43.675 7.54614 42.5176 7.28291 41.2947 7.28291C39.7879 7.28291 38.4558 7.59002 37.3203 8.1823C36.1847 8.77458 35.2457 9.5643 34.4814 10.5514C33.7171 11.5386 33.1493 12.6793 32.7781 13.9516C32.385 15.2458 32.2103 16.584 32.2103 17.966C32.2103 19.3918 32.4069 20.7738 32.7781 22.112C33.1712 23.4501 33.7389 24.6127 34.4814 25.6437C35.2457 26.6747 36.1847 27.4864 37.364 28.0787C38.5214 28.671 39.8753 28.9781 41.4039 28.9781C42.7578 28.9781 43.9589 28.7368 45.0289 28.2322C46.099 27.7496 46.9725 26.938 47.6276 25.8192H47.7368V25.8412ZM47.6494 18.1195C47.6494 18.975 47.5621 19.7867 47.4092 20.5983C47.2564 21.3881 46.9943 22.112 46.6231 22.7262C46.2518 23.3404 45.7496 23.8449 45.1381 24.2179C44.5267 24.5908 43.7405 24.7663 42.8233 24.7663C41.9498 24.7663 41.2074 24.5688 40.5741 24.1959C39.9626 23.8011 39.4385 23.2965 39.0236 22.6823C38.6087 22.0681 38.3248 21.3442 38.1283 20.5545C37.9536 19.7648 37.8444 18.9531 37.8444 18.1634C37.8444 17.3079 37.9317 16.4962 38.1064 15.7065C38.2811 14.9168 38.565 14.2148 38.9363 13.6225C39.3293 13.0083 39.8316 12.5257 40.4649 12.1528C41.0982 11.7799 41.8843 11.6044 42.8015 11.6044C43.7187 11.6044 44.5048 11.7799 45.0944 12.1528C45.7059 12.5257 46.2082 13.0083 46.5794 13.6006C46.9725 14.1929 47.2345 14.8949 47.3874 15.6846C47.5621 16.4523 47.6494 17.264 47.6494 18.1195Z" fill="#666666"/>
<path d="M75.798 28.4735V7.85327H70.164V18.6679C70.164 20.7738 69.8146 22.2875 69.1376 23.1869C68.4388 24.1082 67.3469 24.5689 65.7965 24.5689C64.4425 24.5689 63.5035 24.1521 62.9794 23.3185C62.4553 22.4849 62.1933 21.2126 62.1933 19.5015V7.85327H56.5592V20.5325C56.5592 21.8049 56.6684 22.9675 56.8868 24.0204C57.1051 25.0734 57.4982 25.9728 58.066 26.6967C58.6119 27.4206 59.3762 27.9909 60.3589 28.3858C61.3198 28.7807 62.5645 28.9781 64.0713 28.9781C65.2724 28.9781 66.4297 28.7148 67.5653 28.1884C68.7008 27.6619 69.6399 26.7844 70.3387 25.5999H70.4478V28.4735H75.798Z" fill="#666666"/>
<path d="M83.6594 21.783H78.3092C78.3529 23.165 78.6804 24.3057 79.2482 25.227C79.816 26.1483 80.5366 26.8722 81.432 27.4426C82.3273 27.991 83.3318 28.4078 84.4674 28.6491C85.6029 28.8904 86.7603 29.0001 87.9614 29.0001C89.1188 29.0001 90.2761 28.8904 91.3899 28.671C92.5254 28.4516 93.5081 28.0568 94.3816 27.4864C95.2551 26.938 95.9539 26.1922 96.4998 25.2709C97.0458 24.3495 97.3078 23.2088 97.3078 21.8707C97.3078 20.9055 97.1331 20.1158 96.7619 19.4577C96.3906 18.7996 95.9102 18.2512 95.2988 17.8125C94.6873 17.3737 93.9885 17.0227 93.2242 16.7595C92.4381 16.4963 91.6519 16.2769 90.8221 16.0795C90.0359 15.904 89.2498 15.7285 88.4855 15.553C87.7212 15.3994 87.0442 15.224 86.4327 15.0046C85.8431 14.8072 85.3627 14.5439 84.9915 14.2368C84.6202 13.9078 84.4455 13.5129 84.4455 13.0084C84.4455 12.5916 84.5547 12.2406 84.7731 11.9993C84.9915 11.7361 85.2535 11.5606 85.5374 11.4289C85.8431 11.2973 86.1707 11.2096 86.5419 11.1657C86.9132 11.1218 87.2626 11.0999 87.5683 11.0999C88.5728 11.0999 89.4463 11.2973 90.1888 11.6703C90.9313 12.0651 91.3462 12.789 91.4117 13.8858H96.7619C96.6527 12.6135 96.3251 11.5606 95.7792 10.705C95.2333 9.87146 94.5563 9.19143 93.7265 8.68689C92.8966 8.18235 91.9795 7.83137 90.9313 7.61201C89.8831 7.39264 88.813 7.28296 87.6993 7.28296C86.5856 7.28296 85.4937 7.39264 84.4455 7.59007C83.3973 7.7875 82.4365 8.13848 81.5848 8.62108C80.7332 9.10368 80.0562 9.78372 79.5321 10.6392C79.008 11.4948 78.7678 12.5696 78.7678 13.9078C78.7678 14.8072 78.9425 15.5749 79.3137 16.2111C79.685 16.8253 80.1654 17.3518 80.7768 17.7686C81.3883 18.1854 82.0871 18.5144 82.8514 18.7557C83.6375 19.019 84.4237 19.2383 85.2535 19.4138C87.2626 19.8306 88.8349 20.2693 89.9486 20.6861C91.0841 21.1029 91.6301 21.7391 91.6301 22.5946C91.6301 23.0991 91.5209 23.5159 91.2807 23.845C91.0405 24.174 90.7347 24.4373 90.3853 24.6347C90.0359 24.8321 89.621 24.9857 89.1843 25.0734C88.7475 25.1612 88.3326 25.205 87.9395 25.205C87.3936 25.205 86.8477 25.1392 86.3236 25.0076C85.7995 24.876 85.3409 24.6786 84.9478 24.3934C84.5547 24.1082 84.2272 23.7572 83.9651 23.3185C83.7031 22.8798 83.6594 22.3972 83.6594 21.783Z" fill="#666666"/>
<path d="M106.982 7.85332V1.66724H101.326V7.85332H97.9193V11.6483H101.326V23.8231C101.326 24.8541 101.501 25.6877 101.85 26.3458C102.199 26.9819 102.658 27.4865 103.269 27.8155C103.859 28.1665 104.558 28.3858 105.344 28.5175C106.13 28.6271 106.96 28.693 107.834 28.693C108.379 28.693 108.969 28.671 109.537 28.6491C110.126 28.6271 110.651 28.5613 111.131 28.4955V24.1082C110.869 24.1521 110.585 24.196 110.301 24.2179C110.017 24.2399 109.712 24.2618 109.384 24.2618C108.423 24.2618 107.79 24.1082 107.484 23.7792C107.157 23.4501 107.004 22.814 107.004 21.8707V11.6483H111.131V7.85332H106.982Z" fill="#666666"/>
<path d="M113.009 7.85334V28.4736H118.643V19.1945C118.643 18.2732 118.731 17.3957 118.927 16.606C119.102 15.8163 119.429 15.1143 119.866 14.522C120.303 13.9297 120.871 13.4471 121.591 13.0962C122.312 12.7452 123.185 12.5697 124.212 12.5697C124.561 12.5697 124.911 12.5916 125.282 12.6355C125.653 12.6794 125.981 12.7232 126.243 12.7671V7.50236C125.784 7.37074 125.391 7.30493 125.02 7.30493C124.299 7.30493 123.622 7.41461 122.945 7.63398C122.29 7.85334 121.657 8.13852 121.089 8.53337C120.499 8.92823 119.997 9.3889 119.539 9.93731C119.08 10.4857 118.731 11.078 118.469 11.7142H118.381V7.85334H113.009Z" fill="#666666"/>
<path d="M127.815 28.4735H133.449V7.85325H127.815V28.4735ZM127.815 4.67247H133.449V0H127.815V4.67247Z" fill="#666666"/>
<path d="M149.893 18.3827C149.652 18.6021 149.347 18.7556 148.997 18.8872C148.648 18.9969 148.255 19.1066 147.84 19.1943C147.425 19.2821 147.01 19.3479 146.551 19.3918C146.093 19.4356 145.656 19.5014 145.198 19.5892C144.783 19.6769 144.368 19.7647 143.953 19.9182C143.538 20.0499 143.188 20.2253 142.883 20.4666C142.577 20.686 142.337 20.9712 142.14 21.3222C141.966 21.6732 141.856 22.1119 141.856 22.6384C141.856 23.1429 141.944 23.5597 142.14 23.9107C142.315 24.2617 142.577 24.5249 142.905 24.7223C143.232 24.9198 143.603 25.0514 144.018 25.1391C144.433 25.2269 144.87 25.2488 145.329 25.2488C146.442 25.2488 147.294 25.0733 147.905 24.7004C148.517 24.3275 148.954 23.8887 149.259 23.3623C149.543 22.8358 149.74 22.3093 149.805 21.7828C149.871 21.2564 149.914 20.8176 149.914 20.5105V18.3827H149.893ZM136.877 14.1928C136.965 12.8547 137.292 11.7579 137.86 10.8804C138.45 10.003 139.192 9.30099 140.088 8.77452C140.983 8.24804 142.009 7.87512 143.123 7.63382C144.258 7.41446 145.372 7.28284 146.508 7.28284C147.534 7.28284 148.582 7.34865 149.652 7.5022C150.701 7.65576 151.683 7.94093 152.557 8.35772C153.43 8.77452 154.151 9.3668 154.697 10.1346C155.243 10.9024 155.527 11.8895 155.527 13.1399V23.8668C155.527 24.7881 155.57 25.6875 155.679 26.543C155.789 27.3986 155.963 28.0347 156.225 28.4515H150.504C150.395 28.1225 150.307 27.8154 150.242 27.4644C150.176 27.1353 150.133 26.7843 150.111 26.4553C149.216 27.3766 148.146 28.0347 146.945 28.4076C145.722 28.7806 144.477 28.9561 143.21 28.9561C142.228 28.9561 141.31 28.8464 140.481 28.6051C139.629 28.3638 138.886 27.9909 138.253 27.4863C137.62 26.9818 137.118 26.3456 136.768 25.5778C136.419 24.8101 136.222 23.8887 136.222 22.8358C136.222 21.6732 136.419 20.708 136.834 19.9402C137.249 19.1724 137.773 18.5801 138.428 18.1194C139.083 17.6588 139.825 17.3297 140.655 17.1104C141.485 16.891 142.337 16.7155 143.167 16.562C144.018 16.4303 144.848 16.3207 145.678 16.2329C146.508 16.1452 147.228 16.0355 147.862 15.8819C148.495 15.7284 148.997 15.4871 149.368 15.18C149.74 14.8729 149.914 14.4341 149.893 13.8418C149.893 13.2276 149.783 12.745 149.587 12.394C149.39 12.043 149.128 11.7579 148.801 11.5604C148.473 11.363 148.08 11.2314 147.643 11.1656C147.207 11.0998 146.726 11.0559 146.224 11.0559C145.11 11.0559 144.237 11.2972 143.603 11.7798C142.97 12.2624 142.599 13.0521 142.49 14.1709H136.877V14.1928Z" fill="#666666"/>
<path d="M164.895 -0.00012207H159.261V28.4734H164.895V-0.00012207Z" fill="#666666"/>
<path d="M169.153 -0.00012207V28.4734H175.006V9.41062H175.071L186.863 28.4734H193.109V-0.00012207H187.256V19.1065H187.191L175.355 -0.00012207H169.153Z" fill="#FF141C"/>
<path d="M201.844 19.5454H216.65C216.759 17.944 216.628 16.4304 216.257 14.9606C215.885 13.4909 215.274 12.1966 214.444 11.0559C213.614 9.91525 212.544 8.99392 211.256 8.31389C209.967 7.63386 208.439 7.30481 206.692 7.30481C205.12 7.30481 203.7 7.58998 202.434 8.13839C201.145 8.68681 200.053 9.45458 199.114 10.4417C198.197 11.4069 197.476 12.5696 196.974 13.8857C196.472 15.2239 196.21 16.6497 196.21 18.1853C196.21 19.7867 196.45 21.2345 196.952 22.5726C197.433 23.9107 198.132 25.0514 199.027 25.9947C199.922 26.9599 201.036 27.6838 202.324 28.2103C203.613 28.7367 205.076 28.978 206.692 28.978C209.028 28.978 211.016 28.4516 212.653 27.3767C214.291 26.3237 215.514 24.5469 216.3 22.068H211.343C211.169 22.7042 210.644 23.3184 209.836 23.8888C209.007 24.4591 208.046 24.7443 206.888 24.7443C205.294 24.7443 204.093 24.3275 203.242 23.5159C202.39 22.7042 201.909 21.388 201.844 19.5454ZM211.016 15.9478H201.844C201.866 15.5529 201.953 15.0923 202.106 14.5877C202.259 14.0832 202.499 13.6006 202.87 13.1618C203.22 12.7012 203.7 12.3283 204.29 12.0211C204.879 11.714 205.644 11.5605 206.539 11.5605C207.915 11.5605 208.941 11.9334 209.618 12.6792C210.273 13.4251 210.754 14.5219 211.016 15.9478Z" fill="#FF141C"/>
<path d="M224.424 17.6368L217.043 28.4734H223.354L227.656 21.9802L231.936 28.4734H238.378L230.779 17.5052L237.526 7.85315H231.303L227.721 13.2495L224.118 7.85315H217.676L224.424 17.6368Z" fill="#FF141C"/>
<path d="M246.873 7.8532V1.66711H241.239V7.8532H237.81V11.6482H241.217V23.8229C241.217 24.854 241.392 25.6875 241.741 26.3456C242.09 26.9818 242.549 27.4863 243.16 27.8154C243.772 28.1444 244.449 28.3857 245.235 28.5173C246.021 28.627 246.851 28.6928 247.724 28.6928C248.292 28.6928 248.86 28.6709 249.428 28.649C250.017 28.627 250.541 28.5612 251.022 28.4954V24.1081C250.76 24.152 250.476 24.1959 250.192 24.2178C249.908 24.2397 249.602 24.2617 249.275 24.2617C248.314 24.2617 247.681 24.1081 247.375 23.7791C247.069 23.45 246.895 22.8139 246.895 21.8706V11.6482H251.022V7.8532H246.873Z" fill="#FF141C"/>
</svg>
