<svg width="206" height="24" viewBox="0 0 206 24" fill="none" xmlns="http://www.w3.org/2000/svg">
<path d="M5.116 0H0V23.265H5.116V0Z" fill="white"/>
<path d="M8.47205 6.42V23.265H13.1021V14.439C12.994 13.1477 13.29 11.8547 13.949 10.739C14.2815 10.3456 14.7038 10.0381 15.1802 9.84249C15.6566 9.64684 16.1731 9.56881 16.686 9.615C17.1277 9.56709 17.5742 9.63664 17.9803 9.81663C18.3865 9.99661 18.7379 10.2806 18.9991 10.64C19.4968 11.5982 19.7223 12.6746 19.651 13.752V23.267H24.278V12.904C24.2864 11.9466 24.1936 10.9909 24.001 10.053C23.8469 9.26294 23.5186 8.51719 23.04 7.86999C22.5494 7.2466 21.903 6.76368 21.166 6.47C20.1939 6.10131 19.1582 5.92932 18.119 5.964C17.1251 5.96774 16.145 6.19645 15.252 6.63299C14.2946 7.09903 13.4997 7.84267 12.971 8.767H12.871V6.42H8.47205Z" fill="white"/>
<path d="M39.1641 21.115V23.266H43.564V0H38.937V8.472H38.872C38.3586 7.65286 37.6169 7.00179 36.738 6.599C35.847 6.17704 34.8729 5.95973 33.887 5.963C32.7575 5.93786 31.639 6.18952 30.629 6.696C29.7201 7.16439 28.9247 7.82624 28.299 8.635C27.6651 9.46973 27.1905 10.4142 26.8991 11.421C26.5829 12.4838 26.4239 13.5872 26.4271 14.696C26.4232 15.8423 26.5821 16.9834 26.8991 18.085C27.1899 19.1222 27.664 20.0989 28.299 20.969C28.9212 21.8068 29.7313 22.487 30.6641 22.955C31.6976 23.4615 32.8374 23.7129 33.988 23.688C35.0134 23.7056 36.0304 23.5009 36.9691 23.088C37.8678 22.6686 38.6137 21.9797 39.103 21.117L39.1641 21.115ZM39.0991 14.794C39.0992 15.4723 39.0322 16.1489 38.8991 16.814C38.7828 17.4279 38.5622 18.0175 38.247 18.557C37.9494 19.061 37.529 19.4813 37.025 19.779C36.4428 20.101 35.784 20.2586 35.119 20.235C34.4732 20.2537 33.8352 20.0901 33.278 19.763C32.7684 19.4489 32.3344 19.0262 32.007 18.525C31.661 17.9922 31.4129 17.4019 31.2741 16.782C31.1234 16.1412 31.0469 15.4853 31.046 14.827C31.0441 14.1546 31.1152 13.484 31.2581 12.827C31.3849 12.2213 31.6164 11.6423 31.942 11.116C32.2557 10.6177 32.6866 10.2036 33.197 9.91C33.7859 9.59027 34.4493 9.43321 35.119 9.455C35.7789 9.43017 36.4328 9.5876 37.009 9.91C37.5021 10.2078 37.9202 10.615 38.231 11.1C38.5578 11.6179 38.7844 12.1925 38.8991 12.794C39.0331 13.4522 39.1008 14.1223 39.101 14.794H39.0991Z" fill="white"/>
<path d="M62.204 23.265V6.41998H57.573V15.245C57.6811 16.5363 57.3851 17.8293 56.726 18.945C56.3937 19.3385 55.9714 19.6461 55.495 19.8417C55.0185 20.0374 54.5019 20.1153 53.989 20.069C53.5473 20.1167 53.1008 20.0469 52.6946 19.8668C52.2885 19.6866 51.9371 19.4024 51.676 19.043C51.178 18.0849 50.9524 17.0084 51.024 15.931V6.41998H46.397V16.781C46.3886 17.7384 46.4814 18.6941 46.674 19.632C46.8282 20.422 47.1565 21.1677 47.635 21.815C48.1238 22.4367 48.7712 22.9151 49.509 23.2C50.4839 23.557 51.5184 23.723 52.556 23.689C53.548 23.6856 54.5271 23.4629 55.423 23.037C56.3818 22.5804 57.1778 21.8413 57.704 20.919H57.804V23.265H62.204Z" fill="white"/>
<path d="M68.655 17.791H64.255C64.2595 18.7812 64.5236 19.7528 65.021 20.609C65.4713 21.3415 66.0845 21.9602 66.813 22.417C67.5793 22.8886 68.4234 23.2198 69.306 23.395C70.249 23.5913 71.2098 23.6895 72.173 23.688C73.1195 23.689 74.0638 23.5962 74.992 23.411C75.8646 23.2464 76.6988 22.9205 77.452 22.45C78.2268 21.9687 78.859 21.2889 79.2829 20.4812C79.7068 19.6735 79.9071 18.7671 79.863 17.856C79.8861 17.1704 79.7289 16.4908 79.407 15.885C79.1072 15.3574 78.6959 14.9015 78.202 14.549C77.6776 14.1779 77.1009 13.8867 76.491 13.685C75.8441 13.4661 75.1862 13.2812 74.52 13.131C73.868 12.979 73.2274 12.8377 72.598 12.707C72.0306 12.5931 71.4703 12.4462 70.92 12.267C70.4864 12.134 70.0827 11.9184 69.731 11.632C69.5836 11.5091 69.4659 11.3544 69.3869 11.1794C69.3079 11.0045 69.2697 10.8139 69.275 10.622C69.2592 10.3229 69.3519 10.0282 69.536 9.792C69.7075 9.58655 69.9251 9.42449 70.171 9.319C70.4355 9.20642 70.7158 9.13525 71.002 9.10799C71.2833 9.07653 71.566 9.05984 71.849 9.058C72.5937 9.03972 73.3317 9.20201 74 9.531C74.3156 9.71348 74.5759 9.9778 74.7537 10.296C74.9315 10.6143 75.0201 10.9746 75.01 11.339H79.41C79.3626 10.4229 79.0877 9.53311 78.61 8.75C78.1814 8.08201 77.6079 7.51909 76.932 7.103C76.223 6.67677 75.4444 6.37888 74.632 6.223C73.7576 6.04778 72.8678 5.96068 71.976 5.963C71.0797 5.96131 70.1852 6.043 69.304 6.207C68.4795 6.35425 67.6861 6.64102 66.958 7.055C66.2682 7.45216 65.6908 8.01824 65.28 8.7C64.8265 9.51528 64.6068 10.4399 64.645 11.372C64.6237 12.0265 64.7814 12.6744 65.101 13.246C65.4032 13.7543 65.8152 14.1886 66.307 14.517C66.8361 14.8679 67.4121 15.1423 68.018 15.332C68.6587 15.5387 69.3157 15.718 69.989 15.87C71.2995 16.124 72.5898 16.4726 73.85 16.913C74.7733 17.2603 75.235 17.7817 75.235 18.477C75.2491 18.8415 75.1465 19.2009 74.942 19.503C74.7492 19.7722 74.4988 19.9949 74.209 20.155C73.903 20.3225 73.5737 20.4432 73.232 20.513C72.8949 20.5866 72.551 20.6248 72.206 20.627C71.7609 20.6284 71.3174 20.5736 70.886 20.464C70.4842 20.3666 70.1034 20.1972 69.762 19.964C69.4334 19.7336 69.1601 19.433 68.962 19.084C68.7466 18.6879 68.6406 18.2416 68.655 17.791Z" fill="white"/>
<path d="M87.7821 6.42099V1.36899H83.1521V6.42099H80.3521V9.51599H83.1521V19.454C83.1219 20.1628 83.2675 20.8681 83.576 21.507C83.8405 22.0099 84.2416 22.428 84.7331 22.713C85.2571 23.0074 85.8317 23.2007 86.4271 23.283C87.1011 23.3832 87.7817 23.4324 88.4631 23.43C88.9191 23.43 89.3858 23.419 89.8631 23.397C90.2986 23.3795 90.7327 23.3361 91.1631 23.267V19.684C90.937 19.7294 90.7087 19.7627 90.4791 19.784C90.2397 19.806 89.9901 19.8167 89.7301 19.816C89.1785 19.882 88.6218 19.7428 88.1661 19.425C87.8483 18.9693 87.7091 18.4126 87.7751 17.861V9.51499H91.1641V6.42099H87.7821Z" fill="white"/>
<path d="M92.7361 6.41999V23.265H97.3631V15.673C97.3579 14.9606 97.4344 14.25 97.5911 13.555C97.7274 12.9385 97.9881 12.3563 98.3571 11.844C98.7254 11.3464 99.2126 10.9489 99.774 10.688C100.45 10.3863 101.185 10.241 101.925 10.263C102.219 10.2633 102.513 10.28 102.805 10.313C103.109 10.345 103.37 10.3826 103.587 10.426V6.12598C103.26 6.02366 102.92 5.96877 102.577 5.96299C102.002 5.96096 101.431 6.04869 100.883 6.22298C100.341 6.39651 99.8256 6.64384 99.3511 6.95798C98.3939 7.58939 97.6454 8.49033 97.2001 9.54699H97.136V6.41999H92.7361Z" fill="white"/>
<path d="M104.889 23.266H109.516V6.42001H104.889V23.266ZM104.889 3.81301H109.516V0.00100708H104.889V3.81301Z" fill="white"/>
<path d="M123.006 15.022C122.792 15.2062 122.543 15.3447 122.273 15.429C121.964 15.5309 121.648 15.6124 121.328 15.673C120.991 15.7397 120.638 15.794 120.269 15.836C119.9 15.878 119.53 15.9323 119.161 15.999C118.814 16.0642 118.471 16.1513 118.135 16.26C117.82 16.3579 117.523 16.5065 117.255 16.7C117.006 16.8858 116.801 17.1249 116.655 17.4C116.492 17.734 116.413 18.1033 116.427 18.475C116.415 18.8362 116.494 19.1946 116.655 19.518C116.799 19.7914 117.012 20.0218 117.274 20.186C117.554 20.3561 117.863 20.4721 118.186 20.528C118.541 20.5945 118.9 20.628 119.261 20.628C119.995 20.6691 120.727 20.5116 121.379 20.172C121.837 19.9098 122.218 19.5336 122.487 19.08C122.717 18.684 122.866 18.2467 122.927 17.793C122.975 17.4472 123.002 17.0989 123.008 16.75L123.006 15.022ZM112.319 11.601C112.345 10.6445 112.627 9.71235 113.134 8.90098C113.602 8.19272 114.226 7.60176 114.959 7.17398C115.732 6.72636 116.575 6.41261 117.452 6.24599C118.369 6.06154 119.302 5.96842 120.238 5.96799C121.099 5.96869 121.959 6.0285 122.812 6.14698C123.637 6.25349 124.44 6.48974 125.191 6.84698C125.888 7.1783 126.493 7.67633 126.951 8.29699C127.438 9.02191 127.678 9.88472 127.635 10.757V19.522C127.633 20.2516 127.677 20.9807 127.765 21.705C127.807 22.2523 127.962 22.785 128.221 23.269H123.524C123.437 23.007 123.366 22.7398 123.312 22.469C123.257 22.1945 123.219 21.917 123.198 21.638C122.481 22.3866 121.583 22.9377 120.591 23.238C119.598 23.5411 118.566 23.6947 117.528 23.694C116.769 23.6999 116.012 23.6013 115.28 23.401C114.617 23.2217 113.997 22.9116 113.455 22.489C112.93 22.0714 112.511 21.5355 112.233 20.925C111.924 20.2168 111.774 19.4495 111.793 18.677C111.762 17.8599 111.936 17.048 112.298 16.315C112.608 15.725 113.054 15.2168 113.598 14.832C114.154 14.4519 114.771 14.1708 115.423 14.001C116.104 13.8169 116.795 13.67 117.492 13.561C118.187 13.4523 118.872 13.3653 119.545 13.3C120.149 13.2464 120.748 13.1484 121.337 13.007C121.787 12.9104 122.209 12.7158 122.575 12.437C122.73 12.3034 122.849 12.134 122.923 11.9437C122.997 11.7533 123.023 11.5478 122.999 11.345C123.019 10.9348 122.935 10.5262 122.755 10.157C122.603 9.87462 122.378 9.63813 122.103 9.47199C121.813 9.30209 121.492 9.19129 121.158 9.14598C120.775 9.08997 120.388 9.06256 120.001 9.06398C119.239 9.02125 118.484 9.22766 117.85 9.65199C117.568 9.89436 117.341 10.1941 117.183 10.5312C117.026 10.8683 116.942 11.235 116.938 11.607L112.319 11.601Z" fill="white"/>
<path d="M135.323 0H130.696V23.265H135.323V0Z" fill="white"/>
<path d="M138.809 -7.62939e-06V23.266H143.599V7.69099H143.664L153.341 23.266H158.457V-7.62939e-06H153.667V15.608H153.602L143.892 -0.00100708L138.809 -7.62939e-06Z" fill="#FF141C"/>
<path d="M165.626 15.967H177.781C177.871 14.7086 177.761 13.444 177.455 12.22C177.171 11.0697 176.667 9.98515 175.971 9.02598C175.282 8.08847 174.384 7.32457 173.348 6.79499C172.185 6.21858 170.899 5.9334 169.601 5.96399C168.4 5.94844 167.208 6.18166 166.101 6.64899C165.073 7.08202 164.144 7.72191 163.374 8.5289C162.603 9.33588 162.006 10.2927 161.621 11.34C161.201 12.4657 160.992 13.6587 161.002 14.86C160.987 16.0808 161.19 17.2945 161.602 18.444C161.976 19.4838 162.558 20.4365 163.313 21.244C164.069 22.038 164.991 22.6553 166.013 23.052C167.156 23.4897 168.373 23.7053 169.597 23.687C171.318 23.7399 173.017 23.288 174.485 22.387C175.962 21.3383 177.024 19.8045 177.485 18.053H173.412C173.18 18.674 172.744 19.1972 172.174 19.536C171.349 20.0426 170.388 20.2845 169.421 20.2291C168.454 20.1737 167.527 19.8236 166.765 19.226C165.984 18.3246 165.576 17.1588 165.626 15.967ZM173.153 13.034H165.626C165.657 12.6582 165.728 12.2868 165.838 11.926C165.965 11.4981 166.176 11.0996 166.457 10.753C166.777 10.3627 167.177 10.0462 167.63 9.82499C168.205 9.55603 168.836 9.42751 169.471 9.44999C169.933 9.41311 170.397 9.47541 170.832 9.63271C171.268 9.79001 171.665 10.0387 171.996 10.362C172.622 11.1283 173.023 12.0533 173.154 13.034H173.153Z" fill="#FF141C"/>
<path d="M184.166 14.403L178.105 23.266H183.288L186.806 17.955L190.326 23.266H195.605L189.381 14.305L194.92 6.41998H189.799L186.867 10.82L183.901 6.41998H178.622L184.166 14.403Z" fill="#FF141C"/>
<path d="M202.576 6.42099V1.36899H197.949V6.42099H195.149V9.51599H197.949V19.454C197.919 20.1629 198.065 20.8682 198.374 21.507C198.638 22.0101 199.038 22.4283 199.53 22.713C200.056 23.0079 200.632 23.2013 201.23 23.283C201.904 23.3833 202.584 23.4324 203.266 23.43C203.723 23.43 204.189 23.419 204.666 23.397C205.101 23.3796 205.536 23.3361 205.966 23.267V19.684C205.74 19.7295 205.511 19.7629 205.281 19.784C205.043 19.806 204.793 19.8167 204.532 19.816C203.98 19.8817 203.424 19.7425 202.968 19.425C202.65 18.9691 202.511 18.4126 202.577 17.861V9.51499H205.965V6.42099H202.576Z" fill="#FF141C"/>
</svg>
